<?xml version="1.0" encoding="UTF-8" standalone="no"?>
<!-- Generator: Gravit.io -->
<svg xmlns="http://www.w3.org/2000/svg" xmlns:xlink="http://www.w3.org/1999/xlink" style="isolation:isolate" viewBox="515 935 838.013 219.147" width="838.013pt" height="219.147pt"><defs><clipPath id="_clipPath_vAJCZhRytWls8Dl8HpKCE67SX3hssvPz"><rect x="515" y="935" width="838.013" height="219.147"/></clipPath></defs><g clip-path="url(#_clipPath_vAJCZhRytWls8Dl8HpKCE67SX3hssvPz)"><rect x="515" y="935" width="838.013" height="219.147" style="fill:rgb(72,72,72)" fill-opacity="0"/><g><radialGradient id="_rgradient_0" fx="3.9098888772360207" fy="12.12323235088776" cx="4.409886597327036" cy="12.623138806371978" r="219.307" gradientTransform="matrix(219.307,0,0,219.147,515.018,935)" gradientUnits="userSpaceOnUse"><stop offset="0%" stop-opacity="1" style="stop-color:rgb(255,241,1)"/><stop offset="100%" stop-opacity="1" style="stop-color:rgb(230,218,26)"/></radialGradient><path d=" M 624.669 935 C 685.234 935 734.325 984.059 734.325 1044.596 C 734.325 1105.111 685.212 1154.147 624.669 1154.147 C 564.099 1154.147 515.018 1105.102 515.018 1044.596 C 515.018 984.086 564.118 935 624.669 935 L 624.669 935 Z " fill-rule="evenodd" fill="url(#_rgradient_0)"/><path d=" M 732.413 1064.938 C 720.305 1073.833 707.879 1083.728 697.046 1093.883 C 672.448 1116.975 658.297 1135.048 642.562 1152.669 C 687.965 1145.234 723.947 1109.945 732.413 1064.938 Z " fill-rule="evenodd" fill="rgb(136,160,62)"/><linearGradient id="_lgradient_0" x1="0.006841015425296193" y1="0.7432046298054681" x2="0.8460624055196957" y2="-0.19188811605008949" gradientTransform="matrix(102.997,0,0,145.932,515.109,941.603)" gradientUnits="userSpaceOnUse"><stop offset="0%" stop-opacity="1" style="stop-color:rgb(207,220,94)"/><stop offset="100%" stop-opacity="1" style="stop-color:rgb(191,202,101)"/></linearGradient><path d=" M 586.89 969.13 L 515.109 1049.471 C 515.701 1062.932 518.714 1075.756 523.739 1087.535 C 555.192 1038.885 586.644 990.239 618.106 941.603 C 607.7 950.789 597.291 959.975 586.89 969.116" fill-rule="evenodd" fill="url(#_lgradient_0)"/><path d=" M 515.746 1031.89 C 515.273 1036.056 515 1040.281 515 1044.578 C 515 1046.215 515.046 1047.843 515.123 1049.471 L 586.903 969.13 C 563.189 990.048 539.475 1010.976 515.751 1031.886" fill-rule="evenodd" fill="rgb(136,160,62)"/><linearGradient id="_lgradient_1" x1="0.006841103710751639" y1="0.7432012774514706" x2="0.9944909609895343" y2="-0.024668306690204922" gradientTransform="matrix(95.677,0,0,94.59,515.947,935.8)" gradientUnits="userSpaceOnUse"><stop offset="0%" stop-opacity="1" style="stop-color:rgb(207,220,94)"/><stop offset="100%" stop-opacity="1" style="stop-color:rgb(191,202,101)"/></linearGradient><path d=" M 515.947 1030.39 C 547.854 998.857 579.716 967.329 611.624 935.8 C 561.874 941.699 522.365 980.844 515.947 1030.39 L 515.947 1030.39 Z " fill-rule="evenodd" fill="url(#_lgradient_1)"/><linearGradient id="_lgradient_2" x1="0.3203395974711444" y1="0.9089681253376551" x2="0.7005050619024742" y2="-0.044979343522373316" gradientTransform="matrix(156.952,0,0,218.856,515.701,935.018)" gradientUnits="userSpaceOnUse"><stop offset="0%" stop-opacity="1" style="stop-color:rgb(217,25,99)"/><stop offset="100%" stop-opacity="1" style="stop-color:rgb(152,18,69)"/></linearGradient><path d=" M 611.405 935.8 C 579.498 967.333 547.727 998.857 515.838 1030.39 C 515.774 1030.89 515.76 1031.39 515.701 1031.89 C 539.415 1010.972 563.162 990.053 586.876 969.134 C 597.277 959.948 607.705 950.762 618.101 941.621 C 586.649 990.253 555.196 1038.894 523.744 1087.553 L 523.767 1087.58 C 524.654 1089.672 525.633 1091.718 526.652 1093.737 C 526.866 1094.165 527.085 1094.583 527.303 1095.002 C 528.296 1096.921 529.333 1098.813 530.444 1100.659 L 530.617 1100.977 C 531.823 1102.969 533.093 1104.92 534.413 1106.83 L 535.064 1107.739 C 536.234 1109.395 537.454 1111.014 538.705 1112.605 C 538.919 1112.864 539.115 1113.124 539.324 1113.378 C 540.808 1115.211 542.338 1117.003 543.922 1118.722 L 544.035 1118.835 C 545.565 1120.495 547.158 1122.11 548.783 1123.656 L 549.529 1124.361 C 552.957 1127.59 556.584 1130.591 560.408 1133.365 L 560.954 1133.751 C 562.857 1135.116 564.796 1136.412 566.78 1137.64 L 566.84 1137.685 C 571.013 1140.277 575.374 1142.596 579.903 1144.62 L 580.199 1144.757 C 584.723 1146.758 589.393 1148.463 594.227 1149.85 L 594.427 1149.918 C 601.738 1151.987 609.357 1153.351 617.232 1153.874 C 617.532 1090.886 639.244 1012.222 672.653 946.037 C 658.161 938.984 641.67 935.018 624.464 935.018 C 621.847 935.018 613.704 935.427 611.419 935.819" fill-rule="evenodd" fill="url(#_lgradient_2)"/></g><path d=" M 836.099 1020.494 L 836.099 1020.494 L 836.099 1020.494 Q 838.404 1020.494 840.331 1020.246 L 840.331 1020.246 L 840.331 1020.246 Q 842.259 1019.998 843.968 1019.501 L 843.968 1019.501 L 843.968 1019.501 Q 845.677 1019.004 847.187 1018.304 L 847.187 1018.304 L 847.187 1018.304 Q 848.697 1017.604 850.207 1016.701 L 850.207 1016.701 L 850.207 1002.43 L 841.384 1002.43 L 841.384 1002.43 Q 840.629 1002.43 840.172 1001.933 L 840.172 1001.933 L 840.172 1001.933 Q 839.715 1001.436 839.715 1000.714 L 839.715 1000.714 L 839.715 995.746 L 857.202 995.746 L 857.202 1020.585 L 857.202 1020.585 Q 855.056 1022.346 852.731 1023.656 L 852.731 1023.656 L 852.731 1023.656 Q 850.406 1024.965 847.763 1025.846 L 847.763 1025.846 L 847.763 1025.846 Q 845.12 1026.727 842.1 1027.156 L 842.1 1027.156 L 842.1 1027.156 Q 839.079 1027.585 835.542 1027.585 L 835.542 1027.585 L 835.542 1027.585 Q 829.343 1027.585 824.176 1025.169 L 824.176 1025.169 L 824.176 1025.169 Q 819.01 1022.752 815.274 1018.394 L 815.274 1018.394 L 815.274 1018.394 Q 811.538 1014.036 809.452 1007.939 L 809.452 1007.939 L 809.452 1007.939 Q 807.365 1001.843 807.365 994.527 L 807.365 994.527 L 807.365 994.527 Q 807.365 987.12 809.412 981.023 L 809.412 981.023 L 809.412 981.023 Q 811.459 974.926 815.254 970.568 L 815.254 970.568 L 815.254 970.568 Q 819.049 966.21 824.434 963.817 L 824.434 963.817 L 824.434 963.817 Q 829.819 961.423 836.496 961.423 L 836.496 961.423 L 836.496 961.423 Q 839.874 961.423 842.775 961.988 L 842.775 961.988 L 842.775 961.988 Q 845.677 962.552 848.16 963.613 L 848.16 963.613 L 848.16 963.613 Q 850.644 964.675 852.751 966.188 L 852.751 966.188 L 852.751 966.188 Q 854.857 967.701 856.685 969.597 L 856.685 969.597 L 854.499 973.572 L 854.499 973.572 Q 853.824 974.791 852.751 974.791 L 852.751 974.791 L 852.751 974.791 Q 852.115 974.791 851.36 974.294 L 851.36 974.294 L 851.36 974.294 Q 850.366 973.662 849.134 972.759 L 849.134 972.759 L 849.134 972.759 Q 847.902 971.855 846.134 971.02 L 846.134 971.02 L 846.134 971.02 Q 844.365 970.184 841.961 969.597 L 841.961 969.597 L 841.961 969.597 Q 839.556 969.01 836.258 969.01 L 836.258 969.01 L 836.258 969.01 Q 831.449 969.01 827.554 970.794 L 827.554 970.794 L 827.554 970.794 Q 823.659 972.578 820.917 975.897 L 820.917 975.897 L 820.917 975.897 Q 818.175 979.217 816.705 983.936 L 816.705 983.936 L 816.705 983.936 Q 815.234 988.656 815.234 994.527 L 815.234 994.527 L 815.234 994.527 Q 815.234 1000.668 816.764 1005.478 L 816.764 1005.478 L 816.764 1005.478 Q 818.294 1010.288 821.076 1013.63 L 821.076 1013.63 L 821.076 1013.63 Q 823.858 1016.972 827.673 1018.733 L 827.673 1018.733 L 827.673 1018.733 Q 831.489 1020.494 836.099 1020.494 Z  M 894.707 999.856 L 888.865 999.856 L 888.865 1026.862 L 881.195 1026.862 L 881.195 962.146 L 897.29 962.146 L 897.29 962.146 Q 902.695 962.146 906.63 963.388 L 906.63 963.388 L 906.63 963.388 Q 910.564 964.63 913.127 966.978 L 913.127 966.978 L 913.127 966.978 Q 915.691 969.326 916.923 972.646 L 916.923 972.646 L 916.923 972.646 Q 918.155 975.965 918.155 980.075 L 918.155 980.075 L 918.155 980.075 Q 918.155 983.507 917.201 986.488 L 917.201 986.488 L 917.201 986.488 Q 916.247 989.468 914.439 991.839 L 914.439 991.839 L 914.439 991.839 Q 912.631 994.21 910.028 995.881 L 910.028 995.881 L 910.028 995.881 Q 907.424 997.552 904.126 998.41 L 904.126 998.41 L 904.126 998.41 Q 905.557 999.359 906.669 1001.165 L 906.669 1001.165 L 923.282 1026.862 L 916.446 1026.862 L 916.446 1026.862 Q 914.34 1026.862 913.346 1025.011 L 913.346 1025.011 L 898.562 1001.888 L 898.562 1001.888 Q 897.886 1000.804 897.092 1000.33 L 897.092 1000.33 L 897.092 1000.33 Q 896.297 999.856 894.707 999.856 L 894.707 999.856 L 894.707 999.856 Z  M 888.865 969.055 L 888.865 993.488 L 896.933 993.488 L 896.933 993.488 Q 900.311 993.488 902.874 992.562 L 902.874 992.562 L 902.874 992.562 Q 905.437 991.636 907.166 989.943 L 907.166 989.943 L 907.166 989.943 Q 908.895 988.249 909.769 985.901 L 909.769 985.901 L 909.769 985.901 Q 910.644 983.552 910.644 980.707 L 910.644 980.707 L 910.644 980.707 Q 910.644 974.926 907.285 971.991 L 907.285 971.991 L 907.285 971.991 Q 903.927 969.055 897.29 969.055 L 897.29 969.055 L 888.865 969.055 L 888.865 969.055 Z  M 967.026 962.146 L 989.799 1026.862 L 983.837 1026.862 L 983.837 1026.862 Q 982.804 1026.862 982.168 1026.275 L 982.168 1026.275 L 982.168 1026.275 Q 981.532 1025.688 981.214 1024.785 L 981.214 1024.785 L 975.889 1009.159 L 950.335 1009.159 L 945.009 1024.785 L 945.009 1024.785 Q 944.731 1025.598 944.055 1026.23 L 944.055 1026.23 L 944.055 1026.23 Q 943.38 1026.862 942.386 1026.862 L 942.386 1026.862 L 936.425 1026.862 L 959.197 962.146 L 967.026 962.146 L 967.026 962.146 Z  M 961.423 976.552 L 952.481 1002.836 L 973.743 1002.836 L 964.801 976.507 L 964.801 976.507 Q 963.926 974.068 963.092 970.41 L 963.092 970.41 L 963.092 970.41 Q 962.655 972.262 962.237 973.82 L 962.237 973.82 L 962.237 973.82 Q 961.82 975.378 961.423 976.552 L 961.423 976.552 L 961.423 976.552 Z  M 1019.554 1026.862 L 996.345 962.146 L 1002.505 962.146 L 1002.505 962.146 Q 1003.538 962.146 1004.174 962.733 L 1004.174 962.733 L 1004.174 962.733 Q 1004.81 963.32 1005.128 964.223 L 1005.128 964.223 L 1021.223 1009.881 L 1021.223 1009.881 Q 1021.78 1011.417 1022.237 1013.223 L 1022.237 1013.223 L 1022.237 1013.223 Q 1022.694 1015.03 1023.131 1016.972 L 1023.131 1016.972 L 1023.131 1016.972 Q 1023.489 1015.03 1023.906 1013.223 L 1023.906 1013.223 L 1023.906 1013.223 Q 1024.323 1011.417 1024.88 1009.881 L 1024.88 1009.881 L 1040.896 964.223 L 1040.896 964.223 Q 1041.174 963.455 1041.849 962.801 L 1041.849 962.801 L 1041.849 962.801 Q 1042.525 962.146 1043.519 962.146 L 1043.519 962.146 L 1049.718 962.146 L 1026.509 1026.862 L 1019.554 1026.862 L 1019.554 1026.862 Z  M 1077.487 962.146 L 1077.487 1026.862 L 1069.777 1026.862 L 1069.777 962.146 L 1077.487 962.146 L 1077.487 962.146 Z  M 1098.3 962.146 L 1142.891 962.146 L 1142.891 969.507 L 1124.49 969.507 L 1124.49 1026.862 L 1116.78 1026.862 L 1116.78 969.507 L 1098.3 969.507 L 1098.3 962.146 L 1098.3 962.146 Z " fill="rgb(255,255,255)"/><path d=" M 872.214 1094.509 L 872.214 1094.509 L 872.214 1094.509 Q 872.214 1102.117 869.678 1108.481 L 869.678 1108.481 L 869.678 1108.481 Q 867.142 1114.845 862.548 1119.439 L 862.548 1119.439 L 862.548 1119.439 Q 857.955 1124.033 851.495 1126.569 L 851.495 1126.569 L 851.495 1126.569 Q 845.035 1129.105 837.188 1129.105 L 837.188 1129.105 L 810.774 1129.105 L 810.774 1059.914 L 837.188 1059.914 L 837.188 1059.914 Q 845.035 1059.914 851.495 1062.474 L 851.495 1062.474 L 851.495 1062.474 Q 857.955 1065.034 862.548 1069.603 L 862.548 1069.603 L 862.548 1069.603 Q 867.142 1074.173 869.678 1080.537 L 869.678 1080.537 L 869.678 1080.537 Q 872.214 1086.901 872.214 1094.509 Z  M 859.055 1094.509 L 859.055 1094.509 L 859.055 1094.509 Q 859.055 1088.815 857.524 1084.293 L 857.524 1084.293 L 857.524 1084.293 Q 855.993 1079.771 853.17 1076.637 L 853.17 1076.637 L 853.17 1076.637 Q 850.347 1073.503 846.303 1071.828 L 846.303 1071.828 L 846.303 1071.828 Q 842.26 1070.153 837.188 1070.153 L 837.188 1070.153 L 823.742 1070.153 L 823.742 1118.865 L 837.188 1118.865 L 837.188 1118.865 Q 842.26 1118.865 846.303 1117.19 L 846.303 1117.19 L 846.303 1117.19 Q 850.347 1115.515 853.17 1112.381 L 853.17 1112.381 L 853.17 1112.381 Q 855.993 1109.247 857.524 1104.725 L 857.524 1104.725 L 857.524 1104.725 Q 859.055 1100.203 859.055 1094.509 Z  M 894.273 1059.914 L 937.912 1059.914 L 937.912 1070.153 L 907.24 1070.153 L 907.24 1089.341 L 931.405 1089.341 L 931.405 1099.246 L 907.24 1099.246 L 907.24 1118.817 L 937.912 1118.817 L 937.912 1129.105 L 894.273 1129.105 L 894.273 1059.914 L 894.273 1059.914 Z  M 1001.266 1066.421 L 998.108 1072.498 L 998.108 1072.498 Q 997.582 1073.551 996.888 1073.981 L 996.888 1073.981 L 996.888 1073.981 Q 996.194 1074.412 995.237 1074.412 L 995.237 1074.412 L 995.237 1074.412 Q 994.28 1074.412 993.084 1073.67 L 993.084 1073.67 L 993.084 1073.67 Q 991.887 1072.929 990.261 1072.02 L 990.261 1072.02 L 990.261 1072.02 Q 988.634 1071.11 986.456 1070.369 L 986.456 1070.369 L 986.456 1070.369 Q 984.279 1069.627 981.313 1069.627 L 981.313 1069.627 L 981.313 1069.627 Q 978.633 1069.627 976.647 1070.273 L 976.647 1070.273 L 976.647 1070.273 Q 974.661 1070.919 973.298 1072.067 L 973.298 1072.067 L 973.298 1072.067 Q 971.934 1073.216 971.264 1074.819 L 971.264 1074.819 L 971.264 1074.819 Q 970.594 1076.422 970.594 1078.336 L 970.594 1078.336 L 970.594 1078.336 Q 970.594 1080.776 971.958 1082.403 L 971.958 1082.403 L 971.958 1082.403 Q 973.322 1084.03 975.571 1085.178 L 975.571 1085.178 L 975.571 1085.178 Q 977.819 1086.327 980.69 1087.236 L 980.69 1087.236 L 980.69 1087.236 Q 983.562 1088.145 986.552 1089.174 L 986.552 1089.174 L 986.552 1089.174 Q 989.543 1090.203 992.414 1091.566 L 992.414 1091.566 L 992.414 1091.566 Q 995.285 1092.93 997.534 1095.012 L 997.534 1095.012 L 997.534 1095.012 Q 999.783 1097.093 1001.146 1100.108 L 1001.146 1100.108 L 1001.146 1100.108 Q 1002.51 1103.122 1002.51 1107.429 L 1002.51 1107.429 L 1002.51 1107.429 Q 1002.51 1112.118 1000.907 1116.209 L 1000.907 1116.209 L 1000.907 1116.209 Q 999.304 1120.3 996.218 1123.339 L 996.218 1123.339 L 996.218 1123.339 Q 993.132 1126.377 988.681 1128.124 L 988.681 1128.124 L 988.681 1128.124 Q 984.231 1129.87 978.489 1129.87 L 978.489 1129.87 L 978.489 1129.87 Q 975.188 1129.87 971.982 1129.224 L 971.982 1129.224 L 971.982 1129.224 Q 968.776 1128.578 965.833 1127.382 L 965.833 1127.382 L 965.833 1127.382 Q 962.89 1126.186 960.33 1124.511 L 960.33 1124.511 L 960.33 1124.511 Q 957.77 1122.836 955.761 1120.779 L 955.761 1120.779 L 959.493 1114.606 L 959.493 1114.606 Q 960.019 1113.936 960.761 1113.482 L 960.761 1113.482 L 960.761 1113.482 Q 961.503 1113.027 962.412 1113.027 L 962.412 1113.027 L 962.412 1113.027 Q 963.608 1113.027 964.996 1114.008 L 964.996 1114.008 L 964.996 1114.008 Q 966.383 1114.989 968.273 1116.185 L 968.273 1116.185 L 968.273 1116.185 Q 970.163 1117.382 972.723 1118.362 L 972.723 1118.362 L 972.723 1118.362 Q 975.283 1119.343 978.872 1119.343 L 978.872 1119.343 L 978.872 1119.343 Q 984.375 1119.343 987.39 1116.736 L 987.39 1116.736 L 987.39 1116.736 Q 990.404 1114.128 990.404 1109.247 L 990.404 1109.247 L 990.404 1109.247 Q 990.404 1106.52 989.04 1104.797 L 989.04 1104.797 L 989.04 1104.797 Q 987.677 1103.074 985.428 1101.902 L 985.428 1101.902 L 985.428 1101.902 Q 983.179 1100.73 980.308 1099.916 L 980.308 1099.916 L 980.308 1099.916 Q 977.437 1099.103 974.47 1098.146 L 974.47 1098.146 L 974.47 1098.146 Q 971.503 1097.189 968.632 1095.849 L 968.632 1095.849 L 968.632 1095.849 Q 965.761 1094.509 963.512 1092.356 L 963.512 1092.356 L 963.512 1092.356 Q 961.263 1090.203 959.9 1086.973 L 959.9 1086.973 L 959.9 1086.973 Q 958.536 1083.743 958.536 1079.006 L 958.536 1079.006 L 958.536 1079.006 Q 958.536 1075.226 960.043 1071.637 L 960.043 1071.637 L 960.043 1071.637 Q 961.55 1068.048 964.445 1065.273 L 964.445 1065.273 L 964.445 1065.273 Q 967.34 1062.497 971.551 1060.823 L 971.551 1060.823 L 971.551 1060.823 Q 975.762 1059.148 981.169 1059.148 L 981.169 1059.148 L 981.169 1059.148 Q 987.294 1059.148 992.462 1061.062 L 992.462 1061.062 L 992.462 1061.062 Q 997.629 1062.976 1001.266 1066.421 L 1001.266 1066.421 L 1001.266 1066.421 Z  M 1038.828 1059.914 L 1038.828 1129.105 L 1025.909 1129.105 L 1025.909 1059.914 L 1038.828 1059.914 L 1038.828 1059.914 Z  M 1098.115 1119.63 L 1098.115 1119.63 L 1098.115 1119.63 Q 1102.469 1119.63 1105.699 1118.841 L 1105.699 1118.841 L 1105.699 1118.841 Q 1108.929 1118.051 1111.848 1116.664 L 1111.848 1116.664 L 1111.848 1104.079 L 1103.187 1104.079 L 1103.187 1104.079 Q 1101.943 1104.079 1101.225 1103.385 L 1101.225 1103.385 L 1101.225 1103.385 Q 1100.507 1102.692 1100.507 1101.687 L 1100.507 1101.687 L 1100.507 1094.413 L 1123.523 1094.413 L 1123.523 1122.406 L 1123.523 1122.406 Q 1120.892 1124.32 1118.044 1125.731 L 1118.044 1125.731 L 1118.044 1125.731 Q 1115.197 1127.143 1111.967 1128.052 L 1111.967 1128.052 L 1111.967 1128.052 Q 1108.738 1128.961 1105.053 1129.416 L 1105.053 1129.416 L 1105.053 1129.416 Q 1101.369 1129.87 1097.11 1129.87 L 1097.11 1129.87 L 1097.11 1129.87 Q 1089.55 1129.87 1083.186 1127.239 L 1083.186 1127.239 L 1083.186 1127.239 Q 1076.822 1124.607 1072.18 1119.918 L 1072.18 1119.918 L 1072.18 1119.918 Q 1067.539 1115.228 1064.931 1108.721 L 1064.931 1108.721 L 1064.931 1108.721 Q 1062.323 1102.213 1062.323 1094.509 L 1062.323 1094.509 L 1062.323 1094.509 Q 1062.323 1086.71 1064.859 1080.202 L 1064.859 1080.202 L 1064.859 1080.202 Q 1067.395 1073.694 1072.06 1069.005 L 1072.06 1069.005 L 1072.06 1069.005 Q 1076.726 1064.316 1083.377 1061.732 L 1083.377 1061.732 L 1083.377 1061.732 Q 1090.028 1059.148 1098.306 1059.148 L 1098.306 1059.148 L 1098.306 1059.148 Q 1106.776 1059.148 1112.972 1061.66 L 1112.972 1061.66 L 1112.972 1061.66 Q 1119.169 1064.172 1123.475 1068.192 L 1123.475 1068.192 L 1119.743 1074.029 L 1119.743 1074.029 Q 1118.643 1075.8 1116.824 1075.8 L 1116.824 1075.8 L 1116.824 1075.8 Q 1115.676 1075.8 1114.48 1075.034 L 1114.48 1075.034 L 1114.48 1075.034 Q 1112.948 1074.125 1111.345 1073.216 L 1111.345 1073.216 L 1111.345 1073.216 Q 1109.742 1072.307 1107.805 1071.637 L 1107.805 1071.637 L 1107.805 1071.637 Q 1105.867 1070.967 1103.45 1070.536 L 1103.45 1070.536 L 1103.45 1070.536 Q 1101.034 1070.106 1097.876 1070.106 L 1097.876 1070.106 L 1097.876 1070.106 Q 1092.756 1070.106 1088.617 1071.828 L 1088.617 1071.828 L 1088.617 1071.828 Q 1084.478 1073.551 1081.559 1076.757 L 1081.559 1076.757 L 1081.559 1076.757 Q 1078.64 1079.963 1077.061 1084.461 L 1077.061 1084.461 L 1077.061 1084.461 Q 1075.482 1088.959 1075.482 1094.509 L 1075.482 1094.509 L 1075.482 1094.509 Q 1075.482 1100.49 1077.156 1105.156 L 1077.156 1105.156 L 1077.156 1105.156 Q 1078.831 1109.821 1081.846 1113.027 L 1081.846 1113.027 L 1081.846 1113.027 Q 1084.86 1116.233 1089.023 1117.932 L 1089.023 1117.932 L 1089.023 1117.932 Q 1093.186 1119.63 1098.115 1119.63 Z  M 1154.243 1059.914 L 1154.243 1059.914 L 1154.243 1059.914 Q 1155.104 1059.914 1155.679 1059.985 L 1155.679 1059.985 L 1155.679 1059.985 Q 1156.253 1060.057 1156.707 1060.272 L 1156.707 1060.272 L 1156.707 1060.272 Q 1157.162 1060.488 1157.593 1060.894 L 1157.593 1060.894 L 1157.593 1060.894 Q 1158.023 1061.301 1158.55 1061.971 L 1158.55 1061.971 L 1194.868 1108.242 L 1194.868 1108.242 Q 1194.677 1106.567 1194.605 1104.964 L 1194.605 1104.964 L 1194.605 1104.964 Q 1194.533 1103.361 1194.533 1101.974 L 1194.533 1101.974 L 1194.533 1059.914 L 1205.873 1059.914 L 1205.873 1129.105 L 1199.222 1129.105 L 1199.222 1129.105 Q 1197.691 1129.105 1196.686 1128.626 L 1196.686 1128.626 L 1196.686 1128.626 Q 1195.681 1128.148 1194.724 1126.904 L 1194.724 1126.904 L 1158.55 1080.824 L 1158.55 1080.824 Q 1158.693 1082.355 1158.765 1083.863 L 1158.765 1083.863 L 1158.765 1083.863 Q 1158.837 1085.37 1158.837 1086.614 L 1158.837 1086.614 L 1158.837 1129.105 L 1147.496 1129.105 L 1147.496 1059.914 L 1154.243 1059.914 L 1154.243 1059.914 Z  M 1231.808 1059.914 L 1275.448 1059.914 L 1275.448 1070.153 L 1244.776 1070.153 L 1244.776 1089.341 L 1268.94 1089.341 L 1268.94 1099.246 L 1244.776 1099.246 L 1244.776 1118.817 L 1275.448 1118.817 L 1275.448 1129.105 L 1231.808 1129.105 L 1231.808 1059.914 L 1231.808 1059.914 Z  M 1317.364 1102.07 L 1311.862 1102.07 L 1311.862 1129.105 L 1298.99 1129.105 L 1298.99 1059.914 L 1320.092 1059.914 L 1320.092 1059.914 Q 1327.174 1059.914 1332.222 1061.373 L 1332.222 1061.373 L 1332.222 1061.373 Q 1337.27 1062.832 1340.5 1065.464 L 1340.5 1065.464 L 1340.5 1065.464 Q 1343.73 1068.096 1345.237 1071.756 L 1345.237 1071.756 L 1345.237 1071.756 Q 1346.744 1075.417 1346.744 1079.819 L 1346.744 1079.819 L 1346.744 1079.819 Q 1346.744 1083.312 1345.716 1086.423 L 1345.716 1086.423 L 1345.716 1086.423 Q 1344.687 1089.533 1342.749 1092.069 L 1342.749 1092.069 L 1342.749 1092.069 Q 1340.811 1094.605 1337.964 1096.519 L 1337.964 1096.519 L 1337.964 1096.519 Q 1335.117 1098.433 1331.48 1099.581 L 1331.48 1099.581 L 1331.48 1099.581 Q 1333.921 1100.969 1335.691 1103.553 L 1335.691 1103.553 L 1353.013 1129.105 L 1341.433 1129.105 L 1341.433 1129.105 Q 1339.758 1129.105 1338.586 1128.435 L 1338.586 1128.435 L 1338.586 1128.435 Q 1337.414 1127.765 1336.6 1126.521 L 1336.6 1126.521 L 1322.054 1104.366 L 1322.054 1104.366 Q 1321.24 1103.122 1320.259 1102.596 L 1320.259 1102.596 L 1320.259 1102.596 Q 1319.278 1102.07 1317.364 1102.07 L 1317.364 1102.07 L 1317.364 1102.07 Z  M 1311.862 1069.866 L 1311.862 1092.834 L 1319.901 1092.834 L 1319.901 1092.834 Q 1323.537 1092.834 1326.241 1091.925 L 1326.241 1091.925 L 1326.241 1091.925 Q 1328.944 1091.016 1330.691 1089.413 L 1330.691 1089.413 L 1330.691 1089.413 Q 1332.437 1087.81 1333.299 1085.609 L 1333.299 1085.609 L 1333.299 1085.609 Q 1334.16 1083.408 1334.16 1080.776 L 1334.16 1080.776 L 1334.16 1080.776 Q 1334.16 1075.513 1330.691 1072.69 L 1330.691 1072.69 L 1330.691 1072.69 Q 1327.222 1069.866 1320.092 1069.866 L 1320.092 1069.866 L 1311.862 1069.866 L 1311.862 1069.866 Z " fill="rgb(255,255,255)"/></g></svg>