<?xml version="1.0" encoding="UTF-8" standalone="no"?>
<!DOCTYPE svg PUBLIC "-//W3C//DTD SVG 1.1//EN" "http://www.w3.org/Graphics/SVG/1.1/DTD/svg11.dtd">
<svg width="100%" height="100%" viewBox="0 0 38 28" version="1.1" xmlns="http://www.w3.org/2000/svg" xmlns:xlink="http://www.w3.org/1999/xlink" xml:space="preserve" style="fill-rule:evenodd;clip-rule:evenodd;stroke-linejoin:round;stroke-miterlimit:1.41421;">
    <path d="M2,0 L36,0 Q38,0 38,2 L38,26 Q38,28 36,28 L2,28 Q0,28 0,26 L0,2 Q0,0 2,0 Z M2,1 L36,1 Q37,1 37,2 L37,26 Q37,27 36,27 L2,27 Q1,27 1,26 L1,2 Q1,1 2,1 Z M14,6 L14,22 L28,14 Z" style="fill:rgb(173,173,173);"/>
</svg>
