<?xml version="1.0" encoding="UTF-8" standalone="no"?>
<!DOCTYPE svg PUBLIC "-//W3C//DTD SVG 1.1//EN" "http://www.w3.org/Graphics/SVG/1.1/DTD/svg11.dtd">
<svg width="100%" height="100%" viewBox="0 0 34 36" version="1.1" xmlns="http://www.w3.org/2000/svg" xmlns:xlink="http://www.w3.org/1999/xlink" xml:space="preserve" style="fill-rule:evenodd;clip-rule:evenodd;stroke-linejoin:round;stroke-miterlimit:1.41421;">
    <path d="M1.5,0 L16.5,0 Q18,0 18,1.5 L18,28.5 Q18,30 16.5,30 L1.5,30 Q0,30 0,28.5 L0,1.5 Q0,0 1.5,0 Z M1.5,1 L16.5,1 Q17,1 17,1.5 L17,28.5 Q17,29 16.5,29 L1.5,29 Q1,29 1,28.5 L1,1.5 Q1,1 1.5,1 Z M3,3.5 L15,3.5 L15,24 L3,24 Z M4,4.5 L4,23 L14,23 L14,4.5 Z M7,26 L11,26 L11,27 L7,27 Z M21.5,5 L32.5,5 Q34,5 34,6.5 L34,33.5 Q34,35 32.5,35 L21.5,35 Q20,35 20,33.5 L20,6.5 Q20,5 21.5,5 Z M21.5,6 L32.5,6 Q33,6 33,6.5 L33,33.5 Q33,34 32.5,34 L21.5,34 Q21,34 21,33.5 L21,6.5 Q21,6 21.5,6 Z M22,9 L32,9 L32,28 L22,28 Z M23,10 L23,27 L31,27 L31,10 Z M25,7.5 L29,7.5 L29,8 L25,8 Z M27,30 A1.2,1.2 0 1,1 27,32.4 A1.2,1.2 0 1,1 27,30 Z" style="fill:rgb(114,114,114);"/>
</svg>
