<?xml version="1.0" standalone="no"?><!-- Generator: Gravit.io --><svg xmlns="http://www.w3.org/2000/svg" xmlns:xlink="http://www.w3.org/1999/xlink" style="isolation:isolate" viewBox="111.031 2828 28.241 41.014" width="28.241" height="41.014"><g><path d=" M 121.376 2842.085 C 122.61 2841.714 123.918 2841.514 125.272 2841.514 C 132.722 2841.514 138.772 2847.563 138.772 2855.014 C 138.772 2862.465 132.723 2868.514 125.272 2868.514 C 117.821 2868.514 111.772 2862.465 111.772 2855.014 C 111.772 2852.523 112.448 2850.19 113.626 2848.186" fill="none" vector-effect="non-scaling-stroke" stroke-width="1" stroke="rgb(89,89,89)" stroke-linejoin="miter" stroke-linecap="butt" stroke-miterlimit="3"/><path d=" M 120.625 2841.219 Q 121.085 2842.051 121.743 2843.07 C 122.4 2844.09 121.099 2846.101 118.838 2847.559 C 116.577 2849.017 114.208 2849.373 113.55 2848.353 Q 112.893 2847.334 112.531 2846.156" fill="none" vector-effect="non-scaling-stroke" stroke-width="1" stroke="rgb(89,89,89)" stroke-linejoin="miter" stroke-linecap="square" stroke-miterlimit="3"/><path d=" M 128.23 2845.91 C 128.1 2845.87 128 2845.79 127.93 2845.67 C 127.87 2845.55 127.86 2845.42 127.9 2845.29 C 127.93 2845.16 128.02 2845.06 128.14 2844.99 C 128.25 2844.93 128.39 2844.92 128.52 2844.95 C 131.5 2845.85 133.94 2848.03 135.16 2850.9 C 135.21 2851.02 135.21 2851.16 135.16 2851.28 C 135.12 2851.4 135.02 2851.5 134.9 2851.55 C 134.78 2851.6 134.64 2851.61 134.51 2851.56 C 134.39 2851.51 134.29 2851.41 134.24 2851.29 C 133.13 2848.7 130.93 2846.72 128.23 2845.91 Z " fill="rgb(89,89,89)"/><path d=" M 112.55 2846.353 C 111.893 2845.334 113.194 2843.322 115.455 2841.864 C 117.716 2840.407 120.085 2840.051 120.743 2841.07 C 121.4 2842.09 120.099 2844.101 117.838 2845.559 C 115.577 2847.017 113.208 2847.373 112.55 2846.353 Z " fill="rgb(255,255,255)" vector-effect="non-scaling-stroke" stroke-width="1" stroke="rgb(89,89,89)" stroke-linejoin="miter" stroke-linecap="square" stroke-miterlimit="3"/><path d=" M 117 2843.712 C 113.168 2840.836 110.41 2834.664 120.41 2832.539" fill="none" vector-effect="non-scaling-stroke" stroke-width="1" stroke="rgb(89,89,89)" stroke-linejoin="round" stroke-linecap="round" stroke-miterlimit="3"/><path d=" M 121.25 2828.5 L 121.25 2828 L 122.25 2828 L 122.25 2828.5 L 122.25 2830 L 122.25 2830.5 L 121.25 2830.5 L 121.25 2830 L 121.25 2828.5 Z " fill="rgb(89,89,89)"/><path d=" M 121.25 2833.5 L 121.25 2833 L 122.25 2833 L 122.25 2833.5 L 122.25 2835 L 122.25 2835.5 L 121.25 2835.5 L 121.25 2835 L 121.25 2833.5 Z " fill="rgb(89,89,89)"/><path d=" M 119.1 2829.81 L 118.74 2829.45 L 119.45 2828.75 L 119.8 2829.1 L 120.86 2830.16 L 121.22 2830.51 L 120.51 2831.22 L 120.16 2830.87 L 119.1 2829.81 Z " fill="rgb(89,89,89)"/><path d=" M 122.63 2833.34 L 122.28 2832.99 L 122.99 2832.28 L 123.34 2832.64 L 124.4 2833.7 L 124.75 2834.05 L 124.05 2834.76 L 123.69 2834.4 L 122.63 2833.34 Z " fill="rgb(89,89,89)"/><path d=" M 118.5 2832.25 L 118 2832.25 L 118 2831.25 L 118.5 2831.25 L 120 2831.25 L 120.5 2831.25 L 120.5 2832.25 L 120 2832.25 L 118.5 2832.25 Z " fill="rgb(89,89,89)"/><path d=" M 123.5 2832.25 L 123 2832.25 L 123 2831.25 L 123.5 2831.25 L 125 2831.25 L 125.5 2831.25 L 125.5 2832.25 L 125 2832.25 L 123.5 2832.25 Z " fill="rgb(89,89,89)"/><path d=" M 120.16 2832.64 L 120.51 2832.28 L 121.22 2832.99 L 120.86 2833.34 L 119.8 2834.4 L 119.45 2834.76 L 118.74 2834.05 L 119.1 2833.7 L 120.16 2832.64 Z " fill="rgb(89,89,89)"/><path d=" M 123.34 2830.87 L 122.99 2831.22 L 122.28 2830.51 L 122.63 2830.16 L 123.69 2829.1 L 124.05 2828.75 L 124.75 2829.45 L 124.4 2829.81 L 123.34 2830.87 Z " fill="rgb(89,89,89)"/></g></svg>