<?xml version="1.0" standalone="no"?><!-- Generator: Gravit.io --><svg xmlns="http://www.w3.org/2000/svg" xmlns:xlink="http://www.w3.org/1999/xlink" style="isolation:isolate" viewBox="192 2841.01 27 41.99" width="27" height="41.99"><g><path d=" M 199.5 2876 L 211.5 2876 C 211.776 2876 212 2876.224 212 2876.5 L 212 2876.5 C 212 2876.776 211.776 2877 211.5 2877 L 199.5 2877 C 199.224 2877 199 2876.776 199 2876.5 L 199 2876.5 C 199 2876.224 199.224 2876 199.5 2876 Z " fill="rgb(89,89,89)"/><path d=" M 199.5 2878 L 211.5 2878 C 211.776 2878 212 2878.224 212 2878.5 L 212 2878.5 C 212 2878.776 211.776 2879 211.5 2879 L 199.5 2879 C 199.224 2879 199 2878.776 199 2878.5 L 199 2878.5 C 199 2878.224 199.224 2878 199.5 2878 Z " fill="rgb(89,89,89)"/><path d=" M 200.46 2880 L 210.54 2880 C 210.794 2880 211 2880.206 211 2880.46 L 211 2880.54 C 211 2880.794 210.794 2881 210.54 2881 L 200.46 2881 C 200.206 2881 200 2880.794 200 2880.54 L 200 2880.46 C 200 2880.206 200.206 2880 200.46 2880 Z " fill="rgb(89,89,89)"/><path d=" M 202.367 2882 L 208.633 2882 C 208.836 2882 209 2882.164 209 2882.367 L 209 2882.633 C 209 2882.836 208.836 2883 208.633 2883 L 202.367 2883 C 202.164 2883 202 2882.836 202 2882.633 L 202 2882.367 C 202 2882.164 202.164 2882 202.367 2882 Z " fill="rgb(89,89,89)"/><path d=" M 192 2854.51 C 192 2850.93 193.42 2847.5 195.95 2844.97 C 198.48 2842.44 201.92 2841.01 205.5 2841.01 C 209.08 2841.01 212.52 2842.44 215.05 2844.97 C 217.58 2847.5 219 2850.93 219 2854.51 C 219 2857.78 217.82 2860.93 215.67 2863.39 C 214.53 2864.59 213.63 2865.99 213.01 2867.52 C 212.36 2869.09 212.01 2870.78 212 2872.48 L 212.04 2873.49 L 211.85 2874 L 199.15 2874 L 198.97 2873.49 L 199 2872.49 C 198.99 2870.79 198.64 2869.1 197.98 2867.53 C 197.37 2865.99 196.47 2864.59 195.33 2863.39 C 193.18 2860.93 192 2857.78 192 2854.51 Z  M 199.98 2873 L 200 2872.52 C 200 2872.51 200 2872.5 200 2872.5 C 199.99 2870.66 199.62 2868.85 198.91 2867.15 C 198.25 2865.51 197.29 2864 196.07 2862.72 C 194.09 2860.44 193 2857.53 193 2854.51 C 193 2851.2 194.32 2848.02 196.66 2845.67 C 199 2843.33 202.19 2842.01 205.5 2842.01 C 208.81 2842.01 212 2843.33 214.34 2845.67 C 216.68 2848.02 218 2851.2 218 2854.51 C 218 2857.53 216.91 2860.44 214.93 2862.72 C 213.71 2864 212.75 2865.5 212.09 2867.14 C 211.38 2868.83 211.01 2870.65 211 2872.48 C 211 2872.49 211 2872.5 211 2872.5 L 211.02 2873 L 199.98 2873 Z " fill-rule="evenodd" fill="rgb(89,89,89)"/><path d=" M 208.23 2845.91 C 208.1 2845.87 208 2845.79 207.93 2845.67 C 207.87 2845.55 207.86 2845.42 207.9 2845.29 C 207.93 2845.16 208.02 2845.06 208.14 2844.99 C 208.25 2844.93 208.39 2844.92 208.52 2844.95 C 211.5 2845.85 213.94 2848.03 215.16 2850.9 C 215.21 2851.02 215.21 2851.16 215.16 2851.28 C 215.12 2851.4 215.02 2851.5 214.9 2851.55 C 214.78 2851.6 214.64 2851.61 214.51 2851.56 C 214.39 2851.51 214.29 2851.41 214.24 2851.29 C 213.13 2848.7 210.93 2846.72 208.23 2845.91 Z " fill="rgb(89,89,89)"/></g></svg>