<?xml version="1.0" standalone="no"?><!-- Generator: Gravit.io --><svg xmlns="http://www.w3.org/2000/svg" xmlns:xlink="http://www.w3.org/1999/xlink" style="isolation:isolate" viewBox="0 0 16 16" width="16" height="16"><path d=" M 7 7 L 9 7 L 9 7 L 9 9 L 9 9 L 7 9 L 7 7 L 7 7 L 7 7 L 7 7 L 7 7 L 7 7 L 7 7 L 7 7 L 7 7 L 7 7 Z  M 4 5 C 4 4.73 4.11 4.48 4.29 4.29 C 4.48 4.11 4.73 4 5 4 C 5.27 4 5.52 4.11 5.71 4.29 C 5.89 4.48 6 4.73 6 5 L 6 5.38 L 6 6 L 5.45 6 L 5 6 C 4.73 6 4.48 5.89 4.29 5.71 C 4.11 5.52 4 5.27 4 5 L 4 5 L 4 5 L 4 5 L 4 5 L 4 5 L 4 5 L 4 5 Z  M 4 11 C 4 11.27 4.11 11.52 4.29 11.71 C 4.48 11.89 4.73 12 5 12 C 5.27 12 5.52 11.89 5.71 11.71 C 5.89 11.52 6 11.27 6 11 L 6 10.62 L 6 10 L 5.45 10 L 5 10 C 4.73 10 4.48 10.11 4.29 10.29 C 4.11 10.48 4 10.73 4 11 L 4 11 L 4 11 L 4 11 L 4 11 L 4 11 Z  M 12 11 C 12 11.27 11.89 11.52 11.71 11.71 C 11.52 11.89 11.27 12 11 12 C 10.73 12 10.48 11.89 10.29 11.71 C 10.11 11.52 10 11.27 10 11 L 10 10.62 L 10 10 L 10.55 10 L 11 10 C 11.27 10 11.52 10.11 11.71 10.29 C 11.89 10.48 12 10.73 12 11 L 12 11 L 12 11 L 12 11 Z  M 9 6 L 7 6 L 7 6 L 7 6 L 7 5.38 L 7 5 C 7 4.47 6.79 3.96 6.41 3.59 C 6.04 3.21 5.53 3 5 3 C 4.47 3 3.96 3.21 3.59 3.59 C 3.21 3.96 3 4.47 3 5 C 3 5.53 3.21 6.04 3.59 6.41 C 3.96 6.79 4.47 7 5 7 L 5.45 7 L 6 7 L 6 9 L 5.45 9 L 5 9 C 4.47 9 3.96 9.21 3.59 9.59 C 3.21 9.96 3 10.47 3 11 C 3 11.53 3.21 12.04 3.59 12.41 C 3.96 12.79 4.47 13 5 13 C 5.53 13 6.04 12.79 6.41 12.41 C 6.79 12.04 7 11.53 7 11 L 7 10.62 L 7 10 L 7 10 L 7 10 L 9 10 L 9 10 L 9 10 L 9 10.62 L 9 11 C 9 11.53 9.21 12.04 9.59 12.41 C 9.96 12.79 10.47 13 11 13 C 11.53 13 12.04 12.79 12.41 12.41 C 12.79 12.04 13 11.53 13 11 C 13 10.47 12.79 9.96 12.41 9.59 C 12.04 9.21 11.53 9 11 9 L 10.55 9 L 10 9 L 10 7 L 10.55 7 L 11 7 C 11.53 7 12.04 6.79 12.41 6.41 C 12.79 6.04 13 5.53 13 5 C 13 4.47 12.79 3.96 12.41 3.59 C 12.04 3.21 11.53 3 11 3 C 10.47 3 9.96 3.21 9.59 3.59 C 9.21 3.96 9 4.47 9 5 L 9 5.38 L 9 6 L 9 6 L 9 6 Z  M 12 5 C 12 4.73 11.89 4.48 11.71 4.29 C 11.52 4.11 11.27 4 11 4 C 10.73 4 10.48 4.11 10.29 4.29 C 10.11 4.48 10 4.73 10 5 L 10 5.38 L 10 6 L 10.55 6 L 11 6 C 11.27 6 11.52 5.89 11.71 5.71 C 11.89 5.52 12 5.27 12 5 Z " fill-rule="evenodd" fill="rgb(77,77,77)"/></svg>