<?xml version="1.0" standalone="no"?><!-- Generator: Gravit.io --><svg xmlns="http://www.w3.org/2000/svg" xmlns:xlink="http://www.w3.org/1999/xlink" style="isolation:isolate" viewBox="0 0 16 16" width="16" height="16"><path d=" M 8.5 3.713 L 8.5 7 L 7.5 7 L 7.5 3.719 L 6.13 5.063 L 5.5 4.446 L 8 2 L 10.5 4.446 L 9.87 5.063 L 8.5 3.713 L 8.5 3.713 L 8.5 3.713 Z  M 12.287 8.5 L 10 8.5 L 10 7.5 L 12.281 7.5 L 10.937 6.13 L 11.554 5.5 L 14 8 L 11.554 10.5 L 10.937 9.87 L 12.287 8.5 L 12.287 8.5 L 12.287 8.5 Z  M 8.5 12.287 L 8.5 9 L 7.5 9 L 7.5 12.281 L 6.13 10.937 L 5.5 11.554 L 8 14 L 10.5 11.554 L 9.87 10.937 L 8.5 12.287 L 8.5 12.287 Z  M 3.713 8.5 L 6 8.5 L 6 7.5 L 3.719 7.5 L 5.063 6.13 L 4.446 5.5 L 2 8 L 4.446 10.5 L 5.063 9.87 L 3.713 8.5 Z " fill-rule="evenodd" fill="rgb(77,77,77)"/></svg>