<?xml version="1.0" standalone="no"?><!-- Generator: Gravit.io --><svg xmlns="http://www.w3.org/2000/svg" xmlns:xlink="http://www.w3.org/1999/xlink" style="isolation:isolate" viewBox="1187.995 176 36 36" width="36" height="36"><path d=" M 1203.454 203.792 L 1207.5 203.792 L 1207.5 193.999 L 1210.199 193.999 L 1210.557 190.624 L 1207.5 190.624 L 1207.504 188.935 C 1207.504 188.055 1207.588 187.583 1208.851 187.583 L 1210.538 187.583 L 1210.538 184.208 L 1207.838 184.208 C 1204.595 184.208 1203.454 185.845 1203.454 188.598 L 1203.454 190.624 L 1201.432 190.624 L 1201.432 193.999 L 1203.454 193.999 L 1203.454 203.792 Z  M 1205.995 212 C 1196.054 212 1187.995 203.941 1187.995 194 C 1187.995 184.059 1196.054 176 1205.995 176 C 1215.935 176 1223.995 184.059 1223.995 194 C 1223.995 203.941 1215.935 212 1205.995 212 Z " fill-rule="evenodd" id="facebook" fill="rgb(58,88,155)"/></svg>