<?xml version="1.0" standalone="no"?><!-- Generator: Gravit.io --><svg xmlns="http://www.w3.org/2000/svg" xmlns:xlink="http://www.w3.org/1999/xlink" style="isolation:isolate" viewBox="205 173 29.972 27.955" width="29.972" height="27.955"><g><rect x="205" y="173" width="29.972" height="3" transform="matrix(1,0,0,1,0,0)" fill="rgb(255,255,255)"/><rect x="205" y="179" width="29.972" height="3" transform="matrix(1,0,0,1,0,0)" fill="rgb(255,255,255)"/><rect x="205" y="185" width="29.972" height="3" transform="matrix(1,0,0,1,0,0)" fill="rgb(255,255,255)"/><path d=" M 209.395 198.28 L 209.395 198.28 L 209.395 198.28 Q 209.465 198.4 209.517 198.533 L 209.517 198.533 L 209.517 198.533 Q 209.57 198.665 209.62 198.8 L 209.62 198.8 L 209.62 198.8 Q 209.67 198.66 209.725 198.533 L 209.725 198.533 L 209.725 198.533 Q 209.78 198.405 209.85 198.275 L 209.85 198.275 L 212.275 193.87 L 212.275 193.87 Q 212.34 193.755 212.41 193.73 L 212.41 193.73 L 212.41 193.73 Q 212.48 193.705 212.61 193.705 L 212.61 193.705 L 213.325 193.705 L 213.325 200.87 L 212.475 200.87 L 212.475 195.605 L 212.475 195.605 Q 212.475 195.5 212.48 195.38 L 212.48 195.38 L 212.48 195.38 Q 212.485 195.26 212.495 195.135 L 212.495 195.135 L 210.04 199.615 L 210.04 199.615 Q 209.915 199.84 209.69 199.84 L 209.69 199.84 L 209.55 199.84 L 209.55 199.84 Q 209.325 199.84 209.2 199.615 L 209.2 199.615 L 206.69 195.12 L 206.69 195.12 Q 206.705 195.25 206.712 195.375 L 206.712 195.375 L 206.712 195.375 Q 206.72 195.5 206.72 195.605 L 206.72 195.605 L 206.72 200.87 L 205.87 200.87 L 205.87 193.705 L 206.585 193.705 L 206.585 193.705 Q 206.715 193.705 206.785 193.73 L 206.785 193.73 L 206.785 193.73 Q 206.855 193.755 206.92 193.87 L 206.92 193.87 L 209.395 198.28 Z  M 215.07 193.705 L 219.485 193.705 L 219.485 194.495 L 216.045 194.495 L 216.045 196.875 L 218.83 196.875 L 218.83 197.635 L 216.045 197.635 L 216.045 200.08 L 219.485 200.08 L 219.485 200.87 L 215.07 200.87 L 215.07 193.705 Z  M 221.38 193.705 L 221.38 193.705 L 221.38 193.705 Q 221.51 193.705 221.572 193.738 L 221.572 193.738 L 221.572 193.738 Q 221.635 193.77 221.715 193.87 L 221.715 193.87 L 225.865 199.27 L 225.865 199.27 Q 225.85 199.14 225.845 199.018 L 225.845 199.018 L 225.845 199.018 Q 225.84 198.895 225.84 198.78 L 225.84 198.78 L 225.84 193.705 L 226.69 193.705 L 226.69 200.87 L 226.2 200.87 L 226.2 200.87 Q 226.085 200.87 226.007 200.83 L 226.007 200.83 L 226.007 200.83 Q 225.93 200.79 225.855 200.695 L 225.855 200.695 L 221.71 195.3 L 221.71 195.3 Q 221.72 195.425 221.725 195.545 L 221.725 195.545 L 221.725 195.545 Q 221.73 195.665 221.73 195.765 L 221.73 195.765 L 221.73 200.87 L 220.88 200.87 L 220.88 193.705 L 221.38 193.705 Z  M 231.225 200.1 L 231.225 200.1 L 231.225 200.1 Q 231.67 200.1 232.02 199.95 L 232.02 199.95 L 232.02 199.95 Q 232.37 199.8 232.612 199.53 L 232.612 199.53 L 232.612 199.53 Q 232.855 199.26 232.982 198.885 L 232.982 198.885 L 232.982 198.885 Q 233.11 198.51 233.11 198.06 L 233.11 198.06 L 233.11 193.705 L 234.075 193.705 L 234.075 198.06 L 234.075 198.06 Q 234.075 198.68 233.877 199.21 L 233.877 199.21 L 233.877 199.21 Q 233.68 199.74 233.312 200.128 L 233.312 200.128 L 233.312 200.128 Q 232.945 200.515 232.415 200.735 L 232.415 200.735 L 232.415 200.735 Q 231.885 200.955 231.225 200.955 L 231.225 200.955 L 231.225 200.955 Q 230.565 200.955 230.035 200.735 L 230.035 200.735 L 230.035 200.735 Q 229.505 200.515 229.135 200.128 L 229.135 200.128 L 229.135 200.128 Q 228.765 199.74 228.567 199.21 L 228.567 199.21 L 228.567 199.21 Q 228.37 198.68 228.37 198.06 L 228.37 198.06 L 228.37 193.705 L 229.335 193.705 L 229.335 198.055 L 229.335 198.055 Q 229.335 198.505 229.462 198.88 L 229.462 198.88 L 229.462 198.88 Q 229.59 199.255 229.832 199.525 L 229.832 199.525 L 229.832 199.525 Q 230.075 199.795 230.427 199.948 L 230.427 199.948 L 230.427 199.948 Q 230.78 200.1 231.225 200.1 Z " fill-rule="evenodd" fill="rgb(255,255,255)"/></g></svg>