<?xml version="1.0" standalone="no"?><!-- Generator: Gravit.io --><svg xmlns="http://www.w3.org/2000/svg" xmlns:xlink="http://www.w3.org/1999/xlink" style="isolation:isolate" viewBox="296 293.013 260 260" width="260" height="260"><g id="Group"><rect x="296" y="293.013" width="260" height="260" transform="matrix(1,0,0,1,0,0)" id="Rectangle" fill="rgb(242,242,242)"/><clipPath id="_clipPath_CTM4rKmz8ocAqk0MAaICo4Lt5RquADjz"><rect x="296" y="293.013" width="260" height="260" transform="matrix(1,0,0,1,0,0)" id="Rectangle" fill="rgb(242,242,242)"/></clipPath><g clip-path="url(#_clipPath_CTM4rKmz8ocAqk0MAaICo4Lt5RquADjz)"><g id="logo"><radialGradient id="_rgradient_0" fx="0.5" fy="0.5" cx="0.5" cy="0.5" r="0.5" gradientTransform="matrix(383.92,0,0,384,231.032,227.013)" gradientUnits="userSpaceOnUse"><stop offset="1.3043478260869565%" stop-opacity="100" style="stop-color:rgb(255,241,1)"/><stop offset="98.26086956521739%" stop-opacity="100" style="stop-color:rgb(230,218,26)"/></radialGradient><path d=" M 422.992 227.013 C 529.028 227.013 614.952 312.976 614.952 419.052 C 614.952 525.089 528.988 611.013 422.992 611.013 C 316.956 611.013 231.032 525.073 231.032 419.052 C 231.032 313.024 316.988 227.013 422.992 227.013 Z " fill-rule="evenodd" id="Path" fill="url(#_rgradient_0)"/><path d=" M 611.629 454.695 C 590.417 470.282 568.655 487.621 549.714 505.415 C 506.637 545.878 481.863 577.529 454.316 608.431 C 533.793 595.378 596.792 533.559 611.629 454.695 Z " fill-rule="evenodd" id="Path" fill="rgb(136,160,62)"/><linearGradient id="_lgradient_0" x1="0" y1="0.5" x2="0.6675882758790613" y2="-0.24453065343800473" gradientTransform="matrix(180.31,0,0,255.708,231.191,238.583)" gradientUnits="userSpaceOnUse"><stop offset="10.877993669309628%" stop-opacity="100" style="stop-color:rgb(207,220,94)"/><stop offset="100%" stop-opacity="100" style="stop-color:rgb(191,202,101)"/></linearGradient><path d=" M 356.854 286.816 L 231.191 427.595 C 232.227 451.181 237.502 473.652 246.299 494.291 C 301.361 409.044 356.424 323.805 411.501 238.583 C 393.286 254.679 375.062 270.775 356.854 286.792" fill-rule="evenodd" id="Path" fill="url(#_lgradient_0)"/><path d=" M 232.307 396.789 C 231.478 404.088 231 411.49 231 419.021 C 231 421.889 231.08 424.742 231.215 427.595 L 356.878 286.816 C 315.362 323.471 273.846 360.142 232.315 396.781" fill-rule="evenodd" id="Path" fill="rgb(136,160,62)"/><linearGradient id="_lgradient_1" x1="0" y1="0.5" x2="0.7891977472985527" y2="-0.11413916636124877" gradientTransform="matrix(167.497,0,0,165.744,232.657,228.415)" gradientUnits="userSpaceOnUse"><stop offset="6.956521739130435%" stop-opacity="100" style="stop-color:rgb(207,220,94)"/><stop offset="99.1304347826087%" stop-opacity="100" style="stop-color:rgb(191,202,101)"/></linearGradient><path d=" M 232.657 394.159 C 288.516 338.906 344.296 283.66 400.154 228.415 C 313.059 238.75 243.893 307.343 232.657 394.159 Z " fill-rule="evenodd" id="Path" fill="url(#_lgradient_1)"/><linearGradient id="_lgradient_2" x1="0" y1="0.5" x2="0.3699070147828837" y2="-0.4290687813151486" gradientTransform="matrix(274.768,0,0,383.498,232.227,227.044)" gradientUnits="userSpaceOnUse"><stop offset="11.304347826086957%" stop-opacity="100" style="stop-color:rgb(217,25,99)"/><stop offset="100%" stop-opacity="100" style="stop-color:rgb(145,17,66)"/></linearGradient><path d=" M 399.772 228.415 C 343.913 283.668 288.293 338.906 232.466 394.159 C 232.355 395.035 232.331 395.912 232.227 396.789 C 273.743 360.134 315.314 323.479 356.83 286.824 C 375.038 270.728 393.294 254.631 411.494 238.615 C 356.431 323.829 301.369 409.06 246.307 494.322 L 246.347 494.37 C 247.901 498.036 249.614 501.622 251.399 505.16 C 251.774 505.909 252.156 506.642 252.539 507.375 C 254.276 510.737 256.093 514.052 258.037 517.288 L 258.34 517.845 C 260.451 521.336 262.675 524.754 264.985 528.101 L 266.125 529.694 C 268.173 532.595 270.308 535.432 272.5 538.221 C 272.874 538.675 273.217 539.129 273.583 539.575 C 276.181 542.787 278.859 545.926 281.632 548.954 L 281.831 549.153 C 284.508 552.062 287.297 554.859 290.142 557.6 L 291.449 558.835 C 297.449 564.493 303.8 569.752 310.493 574.589 L 311.45 575.266 C 314.78 577.657 318.175 579.936 321.649 582.103 L 321.753 582.167 C 329.06 586.709 336.694 590.773 344.622 594.311 L 345.14 594.55 C 353.061 598.056 361.236 601.06 369.699 603.49 L 370.05 603.594 C 382.847 607.243 396.186 609.618 409.972 610.542 C 410.497 500.163 448.507 362.325 506.995 246.352 C 481.624 233.993 452.754 227.044 422.633 227.044 C 418.052 227.044 403.796 227.762 399.796 228.447" fill-rule="evenodd" id="Path" fill="url(#_lgradient_2)"/></g></g><g opacity="0.8"><linearGradient id="_lgradient_3" x1="0.5" y1="1" x2="0.5000000000000001" y2="0" gradientTransform="matrix(260,0,0,260,296,293.013)" gradientUnits="userSpaceOnUse"><stop offset="1.3043478260869565%" stop-opacity="1" style="stop-color:rgb(227,0,110)"/><stop offset="100%" stop-opacity="0.6" style="stop-color:rgb(227,0,110)"/></linearGradient><rect x="296" y="293.013" width="260" height="260" transform="matrix(1,0,0,1,0,0)" id="Rectangle" fill="url(#_lgradient_3)"/></g></g></svg>