<?xml version="1.0" standalone="no"?><!-- Generator: Gravit.io --><svg xmlns="http://www.w3.org/2000/svg" xmlns:xlink="http://www.w3.org/1999/xlink" style="isolation:isolate" viewBox="1541 2792 22 29" width="22" height="29"><g><path d="M 1547 2793 L 1547 2793 L 1547 2803 L 1541 2803 L 1541 2803 C 1541 2797.481 1543.689 2793 1547 2793 Z" style="stroke:none;fill:#D9D9D9;stroke-miterlimit:10;"/><path d="M 1551.932 2792 L 1552.068 2792 C 1553.134 2792 1554 2792.866 1554 2793.932 L 1554 2803.925 C 1554 2805.07 1553.104 2806 1552 2806 L 1552 2806 C 1550.896 2806 1550 2805.07 1550 2803.925 L 1550 2793.932 C 1550 2792.866 1550.866 2792 1551.932 2792 Z" style="stroke:none;fill:#E3006E;stroke-miterlimit:10;"/><path d=" M 1547 2805 L 1541 2805 L 1541 2811.823 C 1541 2816.888 1545.112 2821 1550.177 2821 L 1553.823 2821 C 1558.888 2821 1563 2816.888 1563 2811.823 L 1563 2805 L 1557 2805 C 1556.998 2807.758 1554.758 2809.996 1552 2809.996 L 1552 2809.996 C 1549.242 2809.996 1547.002 2807.758 1547 2805 Z " fill="rgb(217,217,217)"/><path d="M 1557 2793 L 1557 2793 C 1560.311 2793 1563 2797.481 1563 2803 L 1563 2803 L 1557 2803 L 1557 2793 Z" style="stroke:none;fill:#D9D9D9;stroke-miterlimit:10;"/></g></svg>