<?xml version="1.0" standalone="no"?><!-- Generator: Gravit.io --><svg xmlns="http://www.w3.org/2000/svg" xmlns:xlink="http://www.w3.org/1999/xlink" style="isolation:isolate" viewBox="1631 2792 22 29" width="22" height="29"><g><path d="M 1637 2793 L 1637 2793 L 1637 2803 L 1631 2803 L 1631 2803 C 1631 2797.481 1633.689 2793 1637 2793 Z" style="stroke:none;fill:#E3006E;stroke-miterlimit:10;"/><path d="M 1641.932 2792 L 1642.068 2792 C 1643.134 2792 1644 2792.866 1644 2793.932 L 1644 2803.925 C 1644 2805.07 1643.104 2806 1642 2806 L 1642 2806 C 1640.896 2806 1640 2805.07 1640 2803.925 L 1640 2793.932 C 1640 2792.866 1640.866 2792 1641.932 2792 Z" style="stroke:none;fill:#D9D9D9;stroke-miterlimit:10;"/><path d=" M 1637 2805 L 1631 2805 L 1631 2811.823 C 1631 2816.888 1635.112 2821 1640.177 2821 L 1643.823 2821 C 1648.888 2821 1653 2816.888 1653 2811.823 L 1653 2805 L 1647 2805 C 1646.998 2807.758 1644.758 2809.996 1642 2809.996 L 1642 2809.996 C 1639.242 2809.996 1637.002 2807.758 1637 2805 Z " fill="rgb(217,217,217)"/><path d="M 1647 2793 L 1647 2793 C 1650.311 2793 1653 2797.481 1653 2803 L 1653 2803 L 1647 2803 L 1647 2793 Z" style="stroke:none;fill:#D9D9D9;stroke-miterlimit:10;"/></g></svg>