<?xml version="1.0" standalone="no"?><!-- Generator: Gravit.io --><svg xmlns="http://www.w3.org/2000/svg" xmlns:xlink="http://www.w3.org/1999/xlink" style="isolation:isolate" viewBox="1451 2792 29 29" width="29" height="29"><g><path d="M 1457 2793 L 1457 2793 L 1457 2803 L 1451 2803 L 1451 2803 C 1451 2797.481 1453.689 2793 1457 2793 Z" style="stroke:none;fill:#D9D9D9;stroke-miterlimit:10;"/><path d="M 1461.932 2792 L 1462.068 2792 C 1463.134 2792 1464 2792.866 1464 2793.932 L 1464 2803.925 C 1464 2805.07 1463.104 2806 1462 2806 L 1462 2806 C 1460.896 2806 1460 2805.07 1460 2803.925 L 1460 2793.932 C 1460 2792.866 1460.866 2792 1461.932 2792 Z" style="stroke:none;fill:#E3006E;stroke-miterlimit:10;"/><path d=" M 1457 2805 L 1451 2805 L 1451 2811.823 C 1451 2816.888 1455.112 2821 1460.177 2821 L 1463.823 2821 C 1468.888 2821 1473 2816.888 1473 2811.823 L 1473 2805 L 1467 2805 C 1466.998 2807.758 1464.758 2809.996 1462 2809.996 L 1462 2809.996 C 1459.242 2809.996 1457.002 2807.758 1457 2805 Z " fill="rgb(217,217,217)"/><path d="M 1467 2793 L 1467 2793 C 1470.311 2793 1473 2797.481 1473 2803 L 1473 2803 L 1467 2803 L 1467 2793 Z" style="stroke:none;fill:#D9D9D9;stroke-miterlimit:10;"/><path d=" M 1478 2810.287 L 1478 2806 L 1477 2806 L 1477 2810.281 L 1475.63 2808.937 L 1475 2809.554 L 1477.5 2812 L 1480 2809.554 L 1479.37 2808.937 L 1478 2810.287 Z " fill="rgb(227,0,110)"/><path d=" M 1478 2797.713 L 1478 2802 L 1477 2802 L 1477 2797.719 L 1475.63 2799.063 L 1475 2798.446 L 1477.5 2796 L 1480 2798.446 L 1479.37 2799.063 L 1478 2797.713 Z " fill="rgb(227,0,110)"/></g></svg>