<?xml version="1.0" standalone="no"?><!-- Generator: Gravit.io --><svg xmlns="http://www.w3.org/2000/svg" xmlns:xlink="http://www.w3.org/1999/xlink" style="isolation:isolate" viewBox="1721 2792 22 29" width="22" height="29"><g><path d="M 1727 2793 L 1727 2793 L 1727 2803 L 1721 2803 L 1721 2803 C 1721 2797.481 1723.689 2793 1727 2793 Z" style="stroke:none;fill:#D9D9D9;stroke-miterlimit:10;"/><path d="M 1731.932 2792 L 1732.068 2792 C 1733.134 2792 1734 2792.866 1734 2793.932 L 1734 2803.925 C 1734 2805.07 1733.104 2806 1732 2806 L 1732 2806 C 1730.896 2806 1730 2805.07 1730 2803.925 L 1730 2793.932 C 1730 2792.866 1730.866 2792 1731.932 2792 Z" style="stroke:none;fill:#D9D9D9;stroke-miterlimit:10;"/><path d=" M 1727 2805 L 1721 2805 L 1721 2811.823 C 1721 2816.888 1725.112 2821 1730.177 2821 L 1733.823 2821 C 1738.888 2821 1743 2816.888 1743 2811.823 L 1743 2805 L 1737 2805 C 1736.998 2807.758 1734.758 2809.996 1732 2809.996 L 1732 2809.996 C 1729.242 2809.996 1727.002 2807.758 1727 2805 Z " fill="rgb(217,217,217)"/><path d="M 1737 2793 L 1737 2793 C 1740.311 2793 1743 2797.481 1743 2803 L 1743 2803 L 1737 2803 L 1737 2793 Z" style="stroke:none;fill:#E3006E;stroke-miterlimit:10;"/></g></svg>