<?xml version="1.0" standalone="no"?><!-- Generator: Gravit.io --><svg xmlns="http://www.w3.org/2000/svg" xmlns:xlink="http://www.w3.org/1999/xlink" style="isolation:isolate" viewBox="347.157 5104.258 43.701 35.742" width="43.701" height="35.742"><path d=" M 366.347 5104.258 L 366.347 5109.482 L 366.347 5109.482 Q 364.149 5110.264 362.343 5111.118 L 362.343 5111.118 L 362.343 5111.118 Q 360.536 5111.973 359.145 5113.096 L 359.145 5113.096 L 359.145 5113.096 Q 357.753 5114.219 356.728 5115.732 L 356.728 5115.732 L 356.728 5115.732 Q 355.702 5117.246 355.067 5119.297 L 355.067 5119.297 L 355.067 5119.297 Q 355.995 5119.053 356.85 5118.906 L 356.85 5118.906 L 356.85 5118.906 Q 357.704 5118.76 358.681 5118.76 L 358.681 5118.76 L 358.681 5118.76 Q 360.78 5118.76 362.538 5119.37 L 362.538 5119.37 L 362.538 5119.37 Q 364.296 5119.98 365.639 5121.079 L 365.639 5121.079 L 365.639 5121.079 Q 366.981 5122.178 367.836 5123.765 L 367.836 5123.765 L 367.836 5123.765 Q 368.69 5125.352 368.983 5127.305 L 368.983 5127.305 L 368.983 5127.305 Q 369.032 5123.545 370.058 5119.98 L 370.058 5119.98 L 370.058 5119.98 Q 371.083 5116.416 373.354 5113.389 L 373.354 5113.389 L 373.354 5113.389 Q 375.624 5110.361 379.262 5107.993 L 379.262 5107.993 L 379.262 5107.993 Q 382.899 5105.625 388.173 5104.258 L 388.173 5104.258 L 388.173 5109.482 L 388.173 5109.482 Q 385.976 5110.264 384.169 5111.118 L 384.169 5111.118 L 384.169 5111.118 Q 382.362 5111.973 380.946 5113.096 L 380.946 5113.096 L 380.946 5113.096 Q 379.53 5114.219 378.529 5115.732 L 378.529 5115.732 L 378.529 5115.732 Q 377.528 5117.246 376.894 5119.297 L 376.894 5119.297 L 376.894 5119.297 Q 377.772 5119.053 378.627 5118.906 L 378.627 5118.906 L 378.627 5118.906 Q 379.481 5118.76 380.458 5118.76 L 380.458 5118.76 L 380.458 5118.76 Q 382.753 5118.76 384.657 5119.492 L 384.657 5119.492 L 384.657 5119.492 Q 386.562 5120.225 387.953 5121.567 L 387.953 5121.567 L 387.953 5121.567 Q 389.345 5122.91 390.102 5124.79 L 390.102 5124.79 L 390.102 5124.79 Q 390.858 5126.67 390.858 5128.965 L 390.858 5128.965 L 390.858 5128.965 Q 390.858 5131.309 390.126 5133.335 L 390.126 5133.335 L 390.126 5133.335 Q 389.394 5135.361 388.002 5136.851 L 388.002 5136.851 L 388.002 5136.851 Q 386.61 5138.34 384.633 5139.17 L 384.633 5139.17 L 384.633 5139.17 Q 382.655 5140 380.165 5140 L 380.165 5140 L 380.165 5140 Q 377.968 5140 376.039 5139.243 L 376.039 5139.243 L 376.039 5139.243 Q 374.11 5138.486 372.646 5137.095 L 372.646 5137.095 L 372.646 5137.095 Q 371.181 5135.703 370.253 5133.701 L 370.253 5133.701 L 370.253 5133.701 Q 369.325 5131.699 369.081 5129.258 L 369.081 5129.258 L 369.081 5129.258 Q 369.032 5131.553 368.275 5133.506 L 368.275 5133.506 L 368.275 5133.506 Q 367.519 5135.459 366.127 5136.899 L 366.127 5136.899 L 366.127 5136.899 Q 364.735 5138.34 362.782 5139.17 L 362.782 5139.17 L 362.782 5139.17 Q 360.829 5140 358.388 5140 L 358.388 5140 L 358.388 5140 Q 355.995 5140 353.944 5139.121 L 353.944 5139.121 L 353.944 5139.121 Q 351.894 5138.242 350.38 5136.631 L 350.38 5136.631 L 350.38 5136.631 Q 348.866 5135.02 348.012 5132.749 L 348.012 5132.749 L 348.012 5132.749 Q 347.157 5130.479 347.157 5127.695 L 347.157 5127.695 L 347.157 5127.695 Q 347.157 5123.887 348.158 5120.249 L 348.158 5120.249 L 348.158 5120.249 Q 349.159 5116.611 351.43 5113.535 L 351.43 5113.535 L 351.43 5113.535 Q 353.7 5110.459 357.362 5108.066 L 357.362 5108.066 L 357.362 5108.066 Q 361.024 5105.674 366.347 5104.258 L 366.347 5104.258 Z " fill="rgb(235,235,235)"/></svg>