<?xml version="1.0" standalone="no"?><!-- Generator: Gravit.io --><svg xmlns="http://www.w3.org/2000/svg" xmlns:xlink="http://www.w3.org/1999/xlink" style="isolation:isolate" viewBox="203 286 15 15" width="15" height="15"><g id="Group"><path d=" M 204.903 297.097 C 202.366 294.56 202.366 290.44 204.903 287.903 C 207.44 285.366 211.56 285.366 214.097 287.903 C 216.634 290.44 216.634 294.56 214.097 297.097 C 211.56 299.634 207.44 299.634 204.903 297.097 Z  M 206.317 295.678 C 205.477 294.838 204.997 293.698 204.997 292.498 C 204.997 291.308 205.477 290.157 206.317 289.317 C 207.157 288.477 208.308 287.997 209.498 287.997 C 210.698 287.997 211.838 288.477 212.678 289.317 C 213.529 290.157 213.999 291.308 213.999 292.498 C 213.999 293.698 213.529 294.838 212.678 295.678 C 211.838 296.529 210.698 296.999 209.498 296.999 C 208.308 296.999 207.157 296.529 206.317 295.678 Z " fill-rule="evenodd" id="Compound Path" fill="rgb(166,166,166)"/><path d=" M 213.303 296.303 L 213.303 296.303 C 213.707 295.899 214.364 295.899 214.768 296.303 L 217.697 299.232 C 218.101 299.636 218.101 300.293 217.697 300.697 L 217.697 300.697 C 217.293 301.101 216.636 301.101 216.232 300.697 L 213.303 297.768 C 212.899 297.364 212.899 296.707 213.303 296.303 Z " id="Path" fill="rgb(166,166,166)"/></g></svg>