<?xml version="1.0" standalone="no"?><!-- Generator: Gravit.io --><svg xmlns="http://www.w3.org/2000/svg" xmlns:xlink="http://www.w3.org/1999/xlink" style="isolation:isolate" viewBox="430 2256 32 32" width="32" height="32"><g><path d=" M 462 2272 C 462 2272.142 461.998 2272.283 461.994 2272.423 C 461.888 2276.539 460.236 2280.392 457.314 2283.314 C 454.292 2286.336 450.274 2288 446 2288 C 441.726 2288 437.708 2286.336 434.686 2283.314 C 431.764 2280.392 430.112 2276.539 430.006 2272.423 C 430.001 2272.283 430 2272.142 430 2272 C 430 2267.726 431.664 2263.708 434.686 2260.686 C 437.708 2257.664 441.726 2256 446 2256 C 450.274 2256 454.292 2257.664 457.314 2260.686 C 460.336 2263.708 462 2267.726 462 2272 Z  M 461 2271.99 L 460.99 2272.4 C 460.89 2276.24 459.32 2279.89 456.61 2282.61 C 453.79 2285.42 449.98 2287 446 2287 C 442.02 2287 438.21 2285.42 435.39 2282.61 C 432.68 2279.89 431.11 2276.24 431.01 2272.4 L 431 2271.99 C 431 2268.02 432.58 2264.2 435.39 2261.39 C 438.21 2258.58 442.02 2257 446 2257 C 449.98 2257 453.79 2258.58 456.61 2261.39 C 459.42 2264.2 461 2268.02 461 2271.99 Z " fill-rule="evenodd" fill="rgb(89,89,89)"/><path d=" M 446.5 2277 C 449.6 2277 452.474 2278.381 454 2280.604 L 453.363 2281 C 451.976 2278.98 449.346 2277.724 446.5 2277.724 C 443.654 2277.724 441.024 2278.979 439.637 2281 L 439 2280.604 C 440.526 2278.381 443.4 2277 446.5 2277 Z " fill="rgb(89,89,89)"/><path d=" M 441.5 2266 C 440.121 2266 439 2267.122 439 2268.5 C 439 2269.879 440.122 2271 441.5 2271 C 442.878 2271 444 2269.879 444 2268.5 C 444 2267.122 442.879 2266 441.5 2266 Z  M 441.5 2270.216 C 440.553 2270.216 439.784 2269.446 439.784 2268.5 C 439.784 2267.554 440.553 2266.784 441.5 2266.784 C 442.447 2266.784 443.216 2267.554 443.216 2268.5 C 443.216 2269.446 442.447 2270.216 441.5 2270.216 Z " fill="rgb(89,89,89)"/><path d=" M 450.5 2266 C 449.121 2266 448 2267.122 448 2268.5 C 448 2269.879 449.122 2271 450.5 2271 C 451.878 2271 453 2269.879 453 2268.5 C 453 2267.122 451.879 2266 450.5 2266 Z  M 450.5 2270.216 C 449.554 2270.216 448.784 2269.446 448.784 2268.5 C 448.784 2267.554 449.554 2266.784 450.5 2266.784 C 451.447 2266.784 452.216 2267.554 452.216 2268.5 C 452.217 2269.446 451.447 2270.216 450.5 2270.216 Z " fill="rgb(89,89,89)"/></g></svg>