<?xml version="1.0" standalone="no"?><!-- Generator: Gravit.io --><svg xmlns="http://www.w3.org/2000/svg" xmlns:xlink="http://www.w3.org/1999/xlink" style="isolation:isolate" viewBox="537 2256 32 32" width="32" height="32"><g><path d=" M 569 2272 C 569 2272.142 568.998 2272.283 568.994 2272.423 C 568.888 2276.539 567.236 2280.392 564.314 2283.314 C 561.292 2286.336 557.274 2288 553 2288 C 548.726 2288 544.708 2286.336 541.686 2283.314 C 538.764 2280.393 537.112 2276.539 537.006 2272.423 C 537.001 2272.283 537 2272.142 537 2272 C 537 2267.726 538.664 2263.708 541.686 2260.686 C 544.708 2257.664 548.726 2256 553 2256 C 557.274 2256 561.292 2257.664 564.314 2260.686 C 567.336 2263.708 569 2267.726 569 2272 Z  M 568.003 2271.99 L 567.993 2272.4 C 567.893 2276.24 566.323 2279.89 563.603 2282.61 C 560.793 2285.42 556.973 2287 553.003 2287 C 549.023 2287 545.203 2285.42 542.393 2282.61 C 539.683 2279.89 538.103 2276.24 538.003 2272.4 L 538.003 2271.99 C 538.003 2268.02 539.583 2264.2 542.393 2261.39 C 545.203 2258.58 549.023 2257 553.003 2257 C 556.973 2257 560.793 2258.58 563.603 2261.39 C 566.413 2264.2 567.993 2268.02 568.003 2271.99 Z " fill-rule="evenodd" fill="rgb(89,89,89)"/><path d=" M 553 2284 C 548.037 2284 544 2280.131 544 2275.375 L 544 2275 L 562 2275 L 562 2275.375 C 562 2280.131 557.963 2284 553 2284 Z  M 544.791 2275.749 C 544.996 2279.919 548.6 2283.251 553 2283.251 C 557.4 2283.251 561.004 2279.919 561.209 2275.749 L 544.791 2275.749 Z " fill="rgb(89,89,89)"/><path d="M 548.5 2266 L 548.5 2266 C 549.328 2266 550 2267.041 550 2268.324 L 550 2268.676 C 550 2269.959 549.328 2271 548.5 2271 L 548.5 2271 C 547.672 2271 547 2269.959 547 2268.676 L 547 2268.324 C 547 2267.041 547.672 2266 548.5 2266 Z" style="stroke:none;fill:#595959;stroke-miterlimit:10;"/><path d="M 557.5 2266 L 557.5 2266 C 558.328 2266 559 2267.041 559 2268.324 L 559 2268.676 C 559 2269.959 558.328 2271 557.5 2271 L 557.5 2271 C 556.672 2271 556 2269.959 556 2268.676 L 556 2268.324 C 556 2267.041 556.672 2266 557.5 2266 Z" style="stroke:none;fill:#595959;stroke-miterlimit:10;"/></g></svg>