<?xml version="1.0" standalone="no"?><!-- Generator: Gravit.io --><svg xmlns="http://www.w3.org/2000/svg" xmlns:xlink="http://www.w3.org/1999/xlink" style="isolation:isolate" viewBox="483 2256 32 32" width="32" height="32"><g><path d=" M 515 2272 C 515 2272.142 514.998 2272.283 514.994 2272.423 C 514.888 2276.539 513.236 2280.392 510.314 2283.314 C 507.292 2286.336 503.274 2288 499 2288 C 494.726 2288 490.708 2286.336 487.686 2283.314 C 484.764 2280.392 483.112 2276.539 483.006 2272.423 C 483.001 2272.283 483 2272.142 483 2272 C 483 2267.726 484.664 2263.708 487.686 2260.686 C 490.708 2257.664 494.726 2256 499 2256 C 503.274 2256 507.292 2257.664 510.314 2260.686 C 513.336 2263.708 515 2267.726 515 2272 Z  M 513.997 2271.99 L 513.997 2272.4 C 513.897 2276.24 512.317 2279.89 509.607 2282.61 C 506.797 2285.42 502.977 2287 498.997 2287 C 495.027 2287 491.207 2285.42 488.397 2282.61 C 485.677 2279.89 484.107 2276.24 484.007 2272.4 L 483.997 2271.99 C 484.007 2268.02 485.587 2264.2 488.397 2261.39 C 491.207 2258.58 495.027 2257 498.997 2257 C 502.977 2257 506.797 2258.58 509.607 2261.39 C 512.417 2264.2 513.997 2268.02 513.997 2271.99 Z " fill-rule="evenodd" fill="rgb(89,89,89)"/><rect x="494" y="2279" width="10" height="1" transform="matrix(1,0,0,1,0,0)" fill="rgb(89,89,89)"/><path d="M 493.5 2267 L 493.5 2267 C 494.328 2267 495 2267.672 495 2268.5 L 495 2268.5 C 495 2269.328 494.328 2270 493.5 2270 L 493.5 2270 C 492.672 2270 492 2269.328 492 2268.5 L 492 2268.5 C 492 2267.672 492.672 2267 493.5 2267 Z" style="stroke:none;fill:#595959;stroke-miterlimit:10;"/><path d="M 503.5 2267 L 503.5 2267 C 504.328 2267 505 2267.672 505 2268.5 L 505 2268.5 C 505 2269.328 504.328 2270 503.5 2270 L 503.5 2270 C 502.672 2270 502 2269.328 502 2268.5 L 502 2268.5 C 502 2267.672 502.672 2267 503.5 2267 Z" style="stroke:none;fill:#595959;stroke-miterlimit:10;"/></g></svg>