<?xml version="1.0" standalone="no"?><!-- Generator: Gravit.io --><svg xmlns="http://www.w3.org/2000/svg" xmlns:xlink="http://www.w3.org/1999/xlink" style="isolation:isolate" viewBox="1248 176 36 36" width="36" height="36"><path d=" M 1268.5 186.97 C 1266.929 187.542 1265.936 189.016 1266.049 190.63 L 1266.086 191.253 L 1265.458 191.177 C 1263.17 190.885 1261.171 189.894 1259.473 188.228 L 1258.643 187.402 L 1258.43 188.012 C 1257.977 189.372 1258.267 190.809 1259.209 191.775 C 1259.712 192.309 1259.599 192.385 1258.732 192.067 C 1258.43 191.965 1258.166 191.889 1258.141 191.927 C 1258.053 192.016 1258.354 193.173 1258.593 193.63 C 1258.92 194.266 1259.586 194.889 1260.316 195.258 L 1260.932 195.55 L 1260.203 195.562 C 1259.499 195.562 1259.474 195.575 1259.549 195.843 C 1259.801 196.669 1260.794 197.546 1261.9 197.928 L 1262.68 198.194 L 1262.001 198.601 C 1260.995 199.186 1259.813 199.516 1258.631 199.541 C 1258.065 199.554 1257.6 199.605 1257.6 199.643 C 1257.6 199.77 1259.134 200.481 1260.026 200.761 C 1262.704 201.588 1265.885 201.231 1268.274 199.821 C 1269.971 198.816 1271.668 196.821 1272.461 194.888 C 1272.889 193.859 1273.316 191.977 1273.316 191.076 C 1273.316 190.491 1273.354 190.414 1274.057 189.715 C 1274.473 189.309 1274.862 188.864 1274.938 188.737 C 1275.064 188.495 1275.05 188.495 1274.41 188.711 C 1273.341 189.093 1273.19 189.042 1273.718 188.47 C 1274.108 188.063 1274.573 187.326 1274.573 187.11 C 1274.573 187.072 1274.385 187.135 1274.171 187.249 C 1273.945 187.377 1273.442 187.567 1273.064 187.681 L 1272.386 187.898 L 1271.77 187.478 C 1271.43 187.249 1270.953 186.995 1270.701 186.919 C 1270.06 186.741 1269.079 186.766 1268.5 186.97 Z  M 1266 212 C 1256.059 212 1248 203.941 1248 194 C 1248 184.059 1256.059 176 1266 176 C 1275.941 176 1284 184.059 1284 194 C 1284 203.941 1275.941 212 1266 212 Z " fill-rule="evenodd" id="twitter" fill="rgb(89,141,202)"/></svg>