<svg xmlns="http://www.w3.org/2000/svg" xmlns:xlink="http://www.w3.org/1999/xlink" style="isolation:isolate" viewBox="0 0 8 7" width="8" height="7"><clipPath id="_clipPath_04ZnHsmNqbK4Fr2DMBGBqqobHD9slTu6"><rect x="0" y="0" width="8" height="7" transform="matrix(1,0,0,1,0,0)" fill="rgb(255,255,255)"/></clipPath><g clip-path="url(#_clipPath_04ZnHsmNqbK4Fr2DMBGBqqobHD9slTu6)"><g opacity="0.2"><path d=" M -12 4.578 C -11.023 3.275 -9.629 2.578 -8 2.578 C -6.371 2.578 -5.629 4.578 -4 4.578 C -2.371 4.578 -1.624 2.611 0 2.578 C 1.699 2.543 2.511 4.651 4.215 4.578 C 5.768 4.511 6.441 2.613 8 2.578 C 9.635 2.541 10.369 4.593 12 4.578 C 13.599 4.563 14.312 2.607 15.908 2.578 C 17.57 2.548 18.345 4.569 20 4.578 C 21.676 4.587 22.469 2.527 24.151 2.578 C 25.727 2.626 26.498 3.797 28 4.578" fill="none" vector-effect="non-scaling-stroke" stroke-width="1" stroke="rgb(227,0,110)" stroke-opacity="100" stroke-linejoin="miter" stroke-linecap="square" stroke-miterlimit="3"/></g></g></svg>