<svg xmlns="http://www.w3.org/2000/svg" xmlns:xlink="http://www.w3.org/1999/xlink" style="isolation:isolate" viewBox="87 4698 8 7" width="8" height="7"><rect x="87" y="4698" width="8" height="7" transform="matrix(1,0,0,1,0,0)" fill="rgb(255,255,255)"/><clipPath id="_clipPath_WTWCzaR4sjQIHSS7yrEaPM9swp1jgZJT"><rect x="87" y="4698" width="8" height="6.037" transform="matrix(1,0,0,1,0,0)" fill="rgb(255,255,255)"/></clipPath><g clip-path="url(#_clipPath_WTWCzaR4sjQIHSS7yrEaPM9swp1jgZJT)"><g opacity="0.5"><path d=" M 75 4702.578 C 75.977 4701.275 77.371 4700.578 79 4700.578 C 80.629 4700.578 81.371 4702.578 83 4702.578 C 84.629 4702.578 85.376 4700.611 87 4700.578 C 88.699 4700.543 89.511 4702.651 91.215 4702.578 C 92.768 4702.511 93.441 4700.613 95 4700.578 C 96.635 4700.541 97.369 4702.593 99 4702.578 C 100.599 4702.563 101.312 4700.607 102.908 4700.578 C 104.57 4700.548 105.345 4702.569 107 4702.578 C 108.676 4702.587 109.469 4700.527 111.151 4700.578 C 112.727 4700.626 113.498 4701.797 115 4702.578" fill="none" vector-effect="non-scaling-stroke" stroke-width="1" stroke="rgb(166,166,166)" stroke-linejoin="miter" stroke-linecap="square" stroke-miterlimit="3"/></g></g></svg>